<svg xmlns="http://www.w3.org/2000/svg" xmlns:xlink="http://www.w3.org/1999/xlink" width="1080" zoomAndPan="magnify" viewBox="0 0 810 809.999993" height="1080" preserveAspectRatio="xMidYMid meet" version="1.0"><defs><filter x="0%" y="0%" width="100%" height="100%" id="d4c2b497d1"><feColorMatrix values="0 0 0 0 1 0 0 0 0 1 0 0 0 0 1 0 0 0 1 0" color-interpolation-filters="sRGB"/></filter><g/><clipPath id="1669bcb64d"><path d="M 611 365 L 759.015625 365 L 759.015625 411 L 611 411 Z M 611 365 " clip-rule="nonzero"/></clipPath><mask id="2de3cdcf59"><g filter="url(#d4c2b497d1)"><rect x="-81" width="972" fill="#000000" y="-80.999999" height="971.999992" fill-opacity="0.4"/></g></mask><clipPath id="225553bd81"><rect x="0" width="326" y="0" height="326"/></clipPath></defs><rect x="-81" width="972" fill="#ffffff" y="-80.999999" height="971.999992" fill-opacity="1"/><rect x="-81" width="972" fill="#000000" y="-80.999999" height="971.999992" fill-opacity="1"/><g clip-path="url(#1669bcb64d)"><path fill="#c52067" d="M 613.738281 391.75 C 612.382812 393.851562 610.554688 392.195312 611.722656 390.351562 C 654.863281 322.515625 681.925781 414.542969 768.652344 406.816406 C 902.1875 394.921875 1013.8125 356.957031 1096.898438 389.644531 C 1102.6875 391.921875 1098.613281 396.703125 1093.730469 394.472656 C 1024.578125 362.835938 896.125 395.960938 768.074219 409.382812 C 681.308594 418.472656 656.785156 325.023438 613.738281 391.75 Z M 613.738281 391.75 " fill-opacity="1" fill-rule="nonzero"/></g><path fill="#eadbd4" d="M 405 567 C 315.5 567 243 494 243 405 C 243 316 315.5 243 405 243 C 494.5 243 567 315.5 567 405 C 567 494.5 494 567 405 567 Z M 405 253 C 321 253 253 321 253 405 C 253 489 321 557 405 557 C 489 557 557 489 557 405 C 557 321 488.5 253 405 253 Z M 405 253 " fill-opacity="1" fill-rule="nonzero"/><g mask="url(#2de3cdcf59)"><g transform="matrix(1, 0, 0, 1, 254, 254)"><g clip-path="url(#225553bd81)"><path fill="#c52067" d="M 163 325 C 73.699219 325 1 252.300781 1 163 C 1 73.699219 73.699219 1 163 1 C 252.300781 1 325 73.699219 325 163 C 325 252.300781 252.300781 325 163 325 Z M 163 3.394531 C 74.976562 3.394531 3.394531 74.976562 3.394531 163 C 3.394531 251.023438 74.976562 322.605469 163 322.605469 C 251.023438 322.605469 322.605469 251.023438 322.605469 163 C 322.605469 74.976562 251.023438 3.394531 163 3.394531 Z M 163 3.394531 " fill-opacity="1" fill-rule="nonzero"/></g></g></g><g fill="#c52067" fill-opacity="1"><g transform="translate(115.626223, 421.533741)"><g><path d="M 18.296875 16.96875 C 30.234375 8.09375 47.078125 -21.609375 54.359375 -31.15625 C 54.359375 -31.828125 52.640625 -31.828125 52.109375 -31.296875 C 46.40625 -24 27.3125 8.75 15.90625 16.3125 C 1.59375 25.453125 4.765625 -1.71875 5.5625 -9.15625 C 6.625 -20.015625 8.75 -31.421875 10.078125 -36.859375 C 53.4375 -85.515625 48.265625 -111.25 34.875 -111.25 C 18.5625 -111.25 6.5 -78.765625 1.1875 -45.484375 C -0.921875 -32.09375 -1.859375 -18.4375 -1.59375 -6.890625 C -1.453125 -0.390625 -1.453125 20.8125 9.15625 20.8125 C 11.671875 20.8125 14.71875 19.625 18.296875 16.96875 Z M 10.46875 -40.3125 C 13.796875 -70.546875 24.65625 -107.796875 34.203125 -109.25 C 45.484375 -110.1875 50.25 -87.78125 10.46875 -40.3125 Z M 10.46875 -40.3125 "/></g></g></g><g fill="#c52067" fill-opacity="1"><g transform="translate(167.207584, 421.533741)"><g><path d="M 16.4375 3.3125 C 8.484375 5.5625 3.046875 -7.953125 7.5625 -30.765625 C 42.03125 -40.96875 26.65625 -65.90625 10.078125 -50.65625 C -7.296875 -34.734375 -4.640625 6.890625 16.703125 5.171875 C 28.640625 1.59375 43.75 -21.609375 51.046875 -31.15625 C 51.046875 -31.828125 49.328125 -31.828125 48.796875 -31.296875 C 43.09375 -24 27.453125 0.265625 16.4375 3.3125 Z M 8.21875 -33.015625 C 10.46875 -40.703125 15.375 -54.09375 22.9375 -53.4375 C 28.109375 -52.5 30.890625 -40.046875 8.21875 -33.015625 Z M 8.21875 -33.015625 "/></g></g></g><g fill="#c52067" fill-opacity="1"><g transform="translate(215.606546, 421.533741)"><g><path d="M 59.140625 -31.03125 C 59.796875 -31.953125 58.203125 -32.484375 56.625 -31.15625 C 36.859375 -2.25 20.6875 16.96875 12.203125 14.453125 C 1.859375 11.40625 20.15625 -18.703125 15.25 -22.28125 C 14.984375 -22.546875 13 -23.734375 2.78125 -31.5625 C 13.796875 -47.46875 17.90625 -56.875 10.46875 -60.203125 C -3.1875 -65.5 -13.65625 -44.6875 -3.71875 -33.9375 C -2.125 -32.359375 6.890625 -25.984375 9.671875 -23.859375 C 4.109375 -14.3125 -1.984375 1.71875 4.375 12.203125 C 6.5 15.640625 10.609375 17.234375 12.59375 17.109375 C 24.390625 16.3125 40.96875 -4.765625 59.140625 -31.03125 Z M 1.0625 -32.890625 C -5.5625 -37.921875 3.71875 -60.734375 9.8125 -58.078125 C 16.046875 -55.421875 8.359375 -43.625 1.0625 -32.890625 Z M 1.0625 -32.890625 "/></g></g></g><g fill="#c52067" fill-opacity="1"><g transform="translate(272.226722, 421.533741)"><g><path d="M 16.046875 7.953125 C -0.921875 18.953125 7.296875 -21.484375 10.734375 -41.640625 C 11.671875 -47.078125 3.71875 -45.609375 0.921875 -38.453125 C -1.0625 -31.6875 -4.25 -7.828125 -1.59375 1.859375 C 1.0625 13 10.078125 14.984375 18.4375 8.625 C 30.359375 -0.265625 44.28125 -21.609375 51.578125 -31.15625 C 51.578125 -31.828125 49.859375 -31.828125 49.328125 -31.296875 C 43.625 -24 27.453125 0.390625 16.046875 7.953125 Z M 8.21875 -53.4375 C 12.0625 -53.4375 13.921875 -63.109375 10.46875 -64.171875 C 5.03125 -64.703125 3.578125 -53.4375 8.21875 -53.4375 Z M 8.21875 -53.4375 "/></g></g></g><g fill="#c52067" fill-opacity="1"><g transform="translate(321.421302, 421.533741)"><g><path d="M 19.359375 -52.765625 C -2.125 -52.765625 -13.65625 6.359375 6.5 11.9375 C 9.9375 12.859375 14.1875 11.9375 18.4375 8.75 C 30.359375 -0.125 48.265625 -21.609375 55.5625 -31.15625 C 55.5625 -31.828125 53.828125 -31.828125 53.296875 -31.296875 C 47.59375 -24 27.453125 0.53125 16.046875 8.09375 C 11.9375 10.734375 8.359375 11.265625 6.5 10.078125 C -3.578125 5.828125 10.203125 -45.875 19.359375 -50.25 C 24.125 -52.5 31.828125 -39.78125 19.890625 -34.078125 C 20.953125 -34.078125 21.484375 -34.078125 22.28125 -34.078125 C 31.953125 -37.65625 28.765625 -52.765625 19.359375 -52.765625 Z M 19.359375 -52.765625 "/></g></g></g><g fill="#c52067" fill-opacity="1"><g transform="translate(374.593874, 421.533741)"><g><path d="M 5.171875 11.53125 C 12.734375 -7.953125 28.640625 -44.15625 38.984375 -42.171875 C 45.75 -40.84375 34.734375 -15.25 35 2.65625 C 35.140625 10.203125 41.109375 15.109375 49.859375 8.625 C 61.78125 -0.265625 75.71875 -21.609375 83 -31.15625 C 83 -31.828125 81.28125 -31.828125 80.75 -31.296875 C 75.046875 -24 58.734375 0.265625 47.46875 7.953125 C 42.171875 11.53125 40.703125 9.15625 41.765625 0.53125 C 43.625 -14.84375 52.90625 -40.578125 39.515625 -43.890625 C 29.296875 -46.40625 16.578125 -22.28125 5.171875 5.828125 C 7.15625 -11.53125 9.421875 -34.203125 10.734375 -39.515625 C 54.09375 -88.171875 47.078125 -113.5 33.671875 -113.5 C 9.671875 -113.5 -1.453125 -47.59375 -3.984375 12.203125 C -3.984375 17.375 3.578125 16.703125 5.171875 11.53125 Z M 11.140625 -42.953125 C 14.71875 -75.046875 24.390625 -110.84375 33.015625 -111.515625 C 44.28125 -112.4375 50.921875 -90.421875 11.140625 -42.953125 Z M 11.140625 -42.953125 "/></g></g></g><g fill="#c52067" fill-opacity="1"><g transform="translate(454.551637, 421.533741)"><g><path d="M 35.53125 -69.34375 C 36.328125 -67.484375 38.71875 -69.21875 37.125 -71.203125 C 34.203125 -75.046875 22.546875 -74.125 13.65625 -71.734375 C 14.984375 -80.484375 16.84375 -90.03125 17.109375 -91.21875 C 18.4375 -97.328125 10.875 -98.515625 8.890625 -91.625 C 7.5625 -87.25 5.828125 -76.90625 4.515625 -69.609375 C -2.515625 -66.953125 -9.546875 -65.90625 -12.0625 -68.15625 C -12.859375 -71.328125 -16.4375 -67.75 -13.265625 -66.421875 C -8.625 -64.171875 -1.984375 -65.234375 4.25 -67.625 C 0.265625 -44.953125 -6.09375 -4.375 1.1875 13.65625 C 3.84375 20.015625 10.734375 26.515625 18.03125 21.078125 C 32.09375 10.609375 46.546875 -21.609375 53.828125 -31.15625 C 53.828125 -31.828125 52.109375 -31.828125 51.578125 -31.296875 C 45.875 -24 28.765625 12.328125 16.171875 20.015625 C 9.9375 23.609375 6.5 17.234375 5.5625 11.53125 C 3.3125 -2.515625 8.890625 -44.28125 13.390625 -69.75 C 26.515625 -73.0625 34.203125 -72.53125 35.53125 -69.34375 Z M 35.53125 -69.34375 "/></g></g></g><g fill="#c52067" fill-opacity="1"><g transform="translate(505.470008, 421.533741)"><g><path d="M 16.4375 3.3125 C 8.484375 5.5625 3.046875 -7.953125 7.5625 -30.765625 C 42.03125 -40.96875 26.65625 -65.90625 10.078125 -50.65625 C -7.296875 -34.734375 -4.640625 6.890625 16.703125 5.171875 C 28.640625 1.59375 43.75 -21.609375 51.046875 -31.15625 C 51.046875 -31.828125 49.328125 -31.828125 48.796875 -31.296875 C 43.09375 -24 27.453125 0.265625 16.4375 3.3125 Z M 8.21875 -33.015625 C 10.46875 -40.703125 15.375 -54.09375 22.9375 -53.4375 C 28.109375 -52.5 30.890625 -40.046875 8.21875 -33.015625 Z M 8.21875 -33.015625 "/></g></g></g><g fill="#c52067" fill-opacity="1"><g transform="translate(553.868969, 421.533741)"><g><path d="M 59.140625 -31.03125 C 59.796875 -31.953125 58.203125 -32.484375 56.625 -31.15625 C 36.859375 -2.25 20.6875 16.96875 12.203125 14.453125 C 1.859375 11.40625 20.15625 -18.703125 15.25 -22.28125 C 14.984375 -22.546875 13 -23.734375 2.78125 -31.5625 C 13.796875 -47.46875 17.90625 -56.875 10.46875 -60.203125 C -3.1875 -65.5 -13.65625 -44.6875 -3.71875 -33.9375 C -2.125 -32.359375 6.890625 -25.984375 9.671875 -23.859375 C 4.109375 -14.3125 -1.984375 1.71875 4.375 12.203125 C 6.5 15.640625 10.609375 17.234375 12.59375 17.109375 C 24.390625 16.3125 40.96875 -4.765625 59.140625 -31.03125 Z M 1.0625 -32.890625 C -5.5625 -37.921875 3.71875 -60.734375 9.8125 -58.078125 C 16.046875 -55.421875 8.359375 -43.625 1.0625 -32.890625 Z M 1.0625 -32.890625 "/></g></g></g><g fill="#c52067" fill-opacity="1"><g transform="translate(347.006198, 489.82804)"><g><path d="M 2.171875 -15.046875 L 6.28125 -15.046875 C 8.15625 -15.046875 9.707031 -14.675781 10.9375 -13.9375 C 12.164062 -13.195312 13.0625 -12.238281 13.625 -11.0625 C 14.1875 -9.882812 14.46875 -8.644531 14.46875 -7.34375 C 14.46875 -5.882812 14.125 -4.597656 13.4375 -3.484375 C 12.757812 -2.367188 11.851562 -1.507812 10.71875 -0.90625 C 9.582031 -0.300781 8.347656 0 7.015625 0 L 2.171875 0 Z M 6.625 -1.953125 C 7.726562 -1.953125 8.71875 -2.171875 9.59375 -2.609375 C 10.46875 -3.046875 11.148438 -3.679688 11.640625 -4.515625 C 12.140625 -5.347656 12.390625 -6.34375 12.390625 -7.5 C 12.390625 -8.675781 12.128906 -9.6875 11.609375 -10.53125 C 11.097656 -11.375 10.414062 -12.015625 9.5625 -12.453125 C 8.707031 -12.890625 7.789062 -13.109375 6.8125 -13.109375 L 4.1875 -13.109375 L 4.1875 -1.953125 Z M 6.625 -1.953125 "/></g></g></g><g fill="#c52067" fill-opacity="1"><g transform="translate(368.035016, 489.82804)"><g><path d="M 11.953125 -15.046875 L 11.953125 -13.109375 L 4.1875 -13.109375 L 4.1875 -8.53125 L 11.109375 -8.53125 L 11.109375 -6.59375 L 4.1875 -6.59375 L 4.1875 -1.953125 L 12.234375 -1.953125 L 12.234375 0 L 2.171875 0 L 2.171875 -15.046875 Z M 11.953125 -15.046875 "/></g></g></g><g fill="#c52067" fill-opacity="1"><g transform="translate(386.963536, 489.82804)"><g><path d="M 9.953125 -12.359375 C 9.410156 -12.648438 8.832031 -12.882812 8.21875 -13.0625 C 7.613281 -13.25 7.039062 -13.34375 6.5 -13.34375 C 5.675781 -13.34375 5.023438 -13.15625 4.546875 -12.78125 C 4.066406 -12.414062 3.828125 -11.914062 3.828125 -11.28125 C 3.828125 -10.65625 4.109375 -10.144531 4.671875 -9.75 C 5.234375 -9.351562 6.035156 -8.960938 7.078125 -8.578125 C 7.847656 -8.296875 8.5 -7.992188 9.03125 -7.671875 C 9.570312 -7.347656 10.019531 -6.894531 10.375 -6.3125 C 10.726562 -5.738281 10.90625 -5.007812 10.90625 -4.125 C 10.90625 -3.3125 10.703125 -2.578125 10.296875 -1.921875 C 9.898438 -1.273438 9.328125 -0.765625 8.578125 -0.390625 C 7.835938 -0.015625 6.96875 0.171875 5.96875 0.171875 C 5.039062 0.171875 4.144531 0.0195312 3.28125 -0.28125 C 2.425781 -0.582031 1.671875 -0.960938 1.015625 -1.421875 L 1.921875 -3.015625 C 2.429688 -2.628906 3.046875 -2.300781 3.765625 -2.03125 C 4.484375 -1.757812 5.15625 -1.625 5.78125 -1.625 C 6.59375 -1.625 7.296875 -1.832031 7.890625 -2.25 C 8.492188 -2.664062 8.796875 -3.28125 8.796875 -4.09375 C 8.796875 -4.789062 8.539062 -5.34375 8.03125 -5.75 C 7.53125 -6.164062 6.820312 -6.550781 5.90625 -6.90625 C 5.0625 -7.226562 4.359375 -7.539062 3.796875 -7.84375 C 3.234375 -8.144531 2.75 -8.5625 2.34375 -9.09375 C 1.945312 -9.632812 1.75 -10.304688 1.75 -11.109375 C 1.75 -12.296875 2.160156 -13.25 2.984375 -13.96875 C 3.804688 -14.695312 4.878906 -15.082031 6.203125 -15.125 C 7.828125 -15.125 9.332031 -14.722656 10.71875 -13.921875 Z M 9.953125 -12.359375 "/></g></g></g><g fill="#c52067" fill-opacity="1"><g transform="translate(404.415601, 489.82804)"><g><path d="M 11.953125 -15.046875 L 11.953125 -13.109375 L 4.1875 -13.109375 L 4.1875 -8.53125 L 11.109375 -8.53125 L 11.109375 -6.59375 L 4.1875 -6.59375 L 4.1875 -1.953125 L 12.234375 -1.953125 L 12.234375 0 L 2.171875 0 L 2.171875 -15.046875 Z M 11.953125 -15.046875 "/></g></g></g><g fill="#c52067" fill-opacity="1"><g transform="translate(423.344122, 489.82804)"><g><path d="M 15.28125 -15.046875 L 15.28125 0.5 L 15.21875 0.5 L 4.15625 -10.71875 L 4.203125 0 L 2.171875 0 L 2.171875 -15.5 L 2.265625 -15.5 L 13.296875 -4.15625 L 13.25 -15.046875 Z M 15.28125 -15.046875 "/></g></g></g><g fill="#c52067" fill-opacity="1"><g transform="translate(446.119725, 489.82804)"><g><path d="M 14.125 -15.046875 L 7.5 0.703125 L 0.859375 -15.046875 L 3.25 -15.046875 L 7.578125 -4.203125 L 11.765625 -15.046875 Z M 14.125 -15.046875 "/></g></g></g><g fill="#c52067" fill-opacity="1"><g transform="translate(466.42072, 489.82804)"><g><path d="M 1.234375 -7.515625 C 1.234375 -8.890625 1.578125 -10.164062 2.265625 -11.34375 C 2.960938 -12.519531 3.894531 -13.457031 5.0625 -14.15625 C 6.238281 -14.863281 7.519531 -15.21875 8.90625 -15.21875 C 10.28125 -15.21875 11.554688 -14.863281 12.734375 -14.15625 C 13.910156 -13.457031 14.847656 -12.519531 15.546875 -11.34375 C 16.253906 -10.164062 16.609375 -8.890625 16.609375 -7.515625 C 16.609375 -6.128906 16.257812 -4.84375 15.5625 -3.65625 C 14.875 -2.476562 13.9375 -1.546875 12.75 -0.859375 C 11.5625 -0.171875 10.28125 0.171875 8.90625 0.171875 C 7.519531 0.171875 6.234375 -0.164062 5.046875 -0.84375 C 3.867188 -1.53125 2.9375 -2.457031 2.25 -3.625 C 1.570312 -4.800781 1.234375 -6.097656 1.234375 -7.515625 Z M 3.3125 -7.5 C 3.3125 -6.46875 3.5625 -5.515625 4.0625 -4.640625 C 4.5625 -3.765625 5.242188 -3.070312 6.109375 -2.5625 C 6.972656 -2.050781 7.921875 -1.796875 8.953125 -1.796875 C 9.972656 -1.796875 10.910156 -2.046875 11.765625 -2.546875 C 12.617188 -3.054688 13.289062 -3.75 13.78125 -4.625 C 14.28125 -5.507812 14.53125 -6.472656 14.53125 -7.515625 C 14.53125 -8.554688 14.28125 -9.519531 13.78125 -10.40625 C 13.28125 -11.289062 12.597656 -11.988281 11.734375 -12.5 C 10.878906 -13.019531 9.9375 -13.28125 8.90625 -13.28125 C 7.882812 -13.28125 6.941406 -13.019531 6.078125 -12.5 C 5.210938 -11.976562 4.535156 -11.269531 4.046875 -10.375 C 3.554688 -9.488281 3.3125 -8.53125 3.3125 -7.5 Z M 3.3125 -7.5 "/></g></g></g><g fill="#c52067" fill-opacity="1"><g transform="translate(489.591446, 489.82804)"><g><path d="M 4.1875 -15.046875 L 4.1875 -1.953125 L 11.84375 -1.953125 L 11.84375 0 L 2.171875 0 L 2.171875 -15.046875 Z M 4.1875 -15.046875 "/></g></g></g><g fill="#c52067" fill-opacity="1"><g transform="translate(507.875319, 489.82804)"><g><path d="M 14.125 -15.046875 L 7.5 0.703125 L 0.859375 -15.046875 L 3.25 -15.046875 L 7.578125 -4.203125 L 11.765625 -15.046875 Z M 14.125 -15.046875 "/></g></g></g><g fill="#c52067" fill-opacity="1"><g transform="translate(528.176304, 489.82804)"><g><path d="M 4.1875 -15.046875 L 4.1875 0 L 2.171875 0 L 2.171875 -15.046875 Z M 4.1875 -15.046875 "/></g></g></g><g fill="#c52067" fill-opacity="1"><g transform="translate(539.868143, 489.82804)"><g><path d="M 17.125 -15.53125 L 17.125 0 L 15.125 0 L 15.125 -9.734375 L 9.59375 -1.890625 L 9.546875 -1.890625 L 4.125 -9.46875 L 4.125 0 L 2.171875 0 L 2.171875 -15.53125 L 2.1875 -15.53125 L 9.59375 -5.03125 L 17.109375 -15.53125 Z M 17.125 -15.53125 "/></g></g></g><g fill="#c52067" fill-opacity="1"><g transform="translate(564.49452, 489.82804)"><g><path d="M 11.953125 -15.046875 L 11.953125 -13.109375 L 4.1875 -13.109375 L 4.1875 -8.53125 L 11.109375 -8.53125 L 11.109375 -6.59375 L 4.1875 -6.59375 L 4.1875 -1.953125 L 12.234375 -1.953125 L 12.234375 0 L 2.171875 0 L 2.171875 -15.046875 Z M 11.953125 -15.046875 "/></g></g></g><g fill="#c52067" fill-opacity="1"><g transform="translate(583.423041, 489.82804)"><g><path d="M 15.28125 -15.046875 L 15.28125 0.5 L 15.21875 0.5 L 4.15625 -10.71875 L 4.203125 0 L 2.171875 0 L 2.171875 -15.5 L 2.265625 -15.5 L 13.296875 -4.15625 L 13.25 -15.046875 Z M 15.28125 -15.046875 "/></g></g></g><g fill="#c52067" fill-opacity="1"><g transform="translate(606.198649, 489.82804)"><g><path d="M 11.046875 -15.046875 L 11.046875 -13.109375 L 7.015625 -13.109375 L 7.015625 0 L 5 0 L 5 -13.109375 L 1.0625 -13.109375 L 1.0625 -15.046875 Z M 11.046875 -15.046875 "/></g></g></g><g fill="#c52067" fill-opacity="1"><g transform="translate(623.650716, 489.82804)"><g><path d="M 1.234375 -7.515625 C 1.234375 -8.890625 1.578125 -10.164062 2.265625 -11.34375 C 2.960938 -12.519531 3.894531 -13.457031 5.0625 -14.15625 C 6.238281 -14.863281 7.519531 -15.21875 8.90625 -15.21875 C 10.28125 -15.21875 11.554688 -14.863281 12.734375 -14.15625 C 13.910156 -13.457031 14.847656 -12.519531 15.546875 -11.34375 C 16.253906 -10.164062 16.609375 -8.890625 16.609375 -7.515625 C 16.609375 -6.128906 16.257812 -4.84375 15.5625 -3.65625 C 14.875 -2.476562 13.9375 -1.546875 12.75 -0.859375 C 11.5625 -0.171875 10.28125 0.171875 8.90625 0.171875 C 7.519531 0.171875 6.234375 -0.164062 5.046875 -0.84375 C 3.867188 -1.53125 2.9375 -2.457031 2.25 -3.625 C 1.570312 -4.800781 1.234375 -6.097656 1.234375 -7.515625 Z M 3.3125 -7.5 C 3.3125 -6.46875 3.5625 -5.515625 4.0625 -4.640625 C 4.5625 -3.765625 5.242188 -3.070312 6.109375 -2.5625 C 6.972656 -2.050781 7.921875 -1.796875 8.953125 -1.796875 C 9.972656 -1.796875 10.910156 -2.046875 11.765625 -2.546875 C 12.617188 -3.054688 13.289062 -3.75 13.78125 -4.625 C 14.28125 -5.507812 14.53125 -6.472656 14.53125 -7.515625 C 14.53125 -8.554688 14.28125 -9.519531 13.78125 -10.40625 C 13.28125 -11.289062 12.597656 -11.988281 11.734375 -12.5 C 10.878906 -13.019531 9.9375 -13.28125 8.90625 -13.28125 C 7.882812 -13.28125 6.941406 -13.019531 6.078125 -12.5 C 5.210938 -11.976562 4.535156 -11.269531 4.046875 -10.375 C 3.554688 -9.488281 3.3125 -8.53125 3.3125 -7.5 Z M 3.3125 -7.5 "/></g></g></g><g fill="#c52067" fill-opacity="1"><g transform="translate(646.821443, 489.82804)"><g/></g></g><g fill="#c52067" fill-opacity="1"><g transform="translate(658.742028, 489.82804)"><g><path d="M 14.21875 0.671875 L 10.703125 -8.328125 L 6.84375 0.703125 L 0.859375 -14.984375 L 3.203125 -14.984375 L 7.09375 -4.03125 L 9.703125 -10.859375 L 8.09375 -14.984375 L 10.09375 -14.984375 L 14.28125 -4.265625 L 17.984375 -14.984375 L 20.140625 -14.984375 Z M 14.21875 0.671875 "/></g></g></g><g fill="#c52067" fill-opacity="1"><g transform="translate(685.0528, 489.82804)"><g><path d="M 11.953125 -15.046875 L 11.953125 -13.109375 L 4.1875 -13.109375 L 4.1875 -8.53125 L 11.109375 -8.53125 L 11.109375 -6.59375 L 4.1875 -6.59375 L 4.1875 -1.953125 L 12.234375 -1.953125 L 12.234375 0 L 2.171875 0 L 2.171875 -15.046875 Z M 11.953125 -15.046875 "/></g></g></g><g fill="#c52067" fill-opacity="1"><g transform="translate(703.981301, 489.82804)"><g><path d="M 8.859375 -7.8125 C 9.722656 -7.476562 10.40625 -7 10.90625 -6.375 C 11.40625 -5.757812 11.65625 -5.039062 11.65625 -4.21875 C 11.65625 -3.257812 11.421875 -2.460938 10.953125 -1.828125 C 10.492188 -1.203125 9.882812 -0.738281 9.125 -0.4375 C 8.363281 -0.144531 7.535156 0 6.640625 0 L 2.171875 0 L 2.171875 -15.046875 L 6.0625 -15.046875 C 7.59375 -15.046875 8.78125 -14.726562 9.625 -14.09375 C 10.476562 -13.46875 10.90625 -12.523438 10.90625 -11.265625 C 10.90625 -10.472656 10.726562 -9.78125 10.375 -9.1875 C 10.019531 -8.59375 9.515625 -8.132812 8.859375 -7.8125 Z M 4.1875 -8.46875 L 6.46875 -8.46875 C 7.25 -8.46875 7.835938 -8.6875 8.234375 -9.125 C 8.628906 -9.570312 8.828125 -10.144531 8.828125 -10.84375 C 8.828125 -11.601562 8.585938 -12.171875 8.109375 -12.546875 C 7.640625 -12.921875 6.984375 -13.109375 6.140625 -13.109375 L 4.1875 -13.109375 Z M 6.5625 -1.875 C 7.425781 -1.875 8.144531 -2.070312 8.71875 -2.46875 C 9.289062 -2.863281 9.578125 -3.441406 9.578125 -4.203125 C 9.578125 -4.992188 9.265625 -5.578125 8.640625 -5.953125 C 8.023438 -6.328125 7.28125 -6.515625 6.40625 -6.515625 L 4.1875 -6.515625 L 4.1875 -1.875 Z M 6.5625 -1.875 "/></g></g></g></svg>