<svg xmlns="http://www.w3.org/2000/svg" xmlns:xlink="http://www.w3.org/1999/xlink" width="1920" zoomAndPan="magnify" viewBox="0 0 1440 809.999993" height="1080" preserveAspectRatio="xMidYMid meet" version="1.0"><path fill="#ed0b81" d="M 315 405 C 315 181.324219 496.324219 0 720 0 C 943.675781 0 1125 181.324219 1125 405 C 1125 628.675781 943.675781 810 720 810 C 496.324219 810 315 628.675781 315 405 " fill-opacity="1" fill-rule="nonzero"/><path fill="#ffffff" d="M 476.058594 171.269531 C 474.71875 171.269531 473.375 170.757812 472.351562 169.730469 C 470.300781 167.683594 470.300781 164.363281 472.351562 162.3125 L 510.929688 123.734375 C 512.980469 121.683594 516.300781 121.683594 518.347656 123.734375 C 520.398438 125.785156 520.398438 129.105469 518.347656 131.152344 L 479.769531 169.730469 C 478.746094 170.757812 477.402344 171.269531 476.058594 171.269531 " fill-opacity="1" fill-rule="nonzero"/><path fill="#ffffff" d="M 514.640625 171.269531 C 513.292969 171.269531 511.953125 170.757812 510.929688 169.730469 L 472.351562 131.152344 C 470.300781 129.105469 470.300781 125.785156 472.351562 123.734375 C 474.398438 121.683594 477.71875 121.683594 479.769531 123.734375 L 518.347656 162.3125 C 520.398438 164.363281 520.398438 167.683594 518.347656 169.730469 C 517.324219 170.757812 515.984375 171.269531 514.640625 171.269531 " fill-opacity="1" fill-rule="nonzero"/><path fill="#ffffff" d="M 941.96875 673.253906 C 940.628906 673.253906 939.285156 672.742188 938.257812 671.714844 C 936.210938 669.667969 936.210938 666.347656 938.257812 664.296875 L 963.441406 639.117188 C 965.488281 637.066406 968.808594 637.066406 970.859375 639.117188 C 972.90625 641.164062 972.90625 644.484375 970.859375 646.535156 L 945.675781 671.714844 C 944.652344 672.742188 943.3125 673.253906 941.96875 673.253906 " fill-opacity="1" fill-rule="nonzero"/><path fill="#ffffff" d="M 967.148438 673.253906 C 965.808594 673.253906 964.464844 672.742188 963.441406 671.714844 L 938.257812 646.535156 C 936.210938 644.484375 936.210938 641.164062 938.257812 639.117188 C 940.308594 637.066406 943.628906 637.066406 945.675781 639.117188 L 970.859375 664.296875 C 972.90625 666.347656 972.90625 669.667969 970.859375 671.714844 C 969.832031 672.742188 968.492188 673.253906 967.148438 673.253906 " fill-opacity="1" fill-rule="nonzero"/><path fill="#ffffff" d="M 512.011719 271.8125 L 927.988281 271.8125 L 927.988281 220.199219 C 927.988281 207.414062 917.585938 197.011719 904.800781 197.011719 L 535.199219 197.011719 C 522.414062 197.011719 512.011719 207.414062 512.011719 220.199219 Z M 933.234375 282.304688 L 506.765625 282.304688 C 503.867188 282.304688 501.519531 279.957031 501.519531 277.058594 L 501.519531 220.199219 C 501.519531 201.628906 516.628906 186.519531 535.199219 186.519531 L 904.800781 186.519531 C 923.371094 186.519531 938.480469 201.628906 938.480469 220.199219 L 938.480469 277.058594 C 938.480469 279.957031 936.132812 282.304688 933.234375 282.304688 " fill-opacity="1" fill-rule="nonzero"/><path fill="#ffffff" d="M 560.785156 239.65625 L 549.410156 239.65625 C 546.515625 239.65625 544.164062 237.3125 544.164062 234.410156 C 544.164062 231.515625 546.515625 229.164062 549.410156 229.164062 L 560.785156 229.164062 C 563.683594 229.164062 566.03125 231.515625 566.03125 234.410156 C 566.03125 237.3125 563.683594 239.65625 560.785156 239.65625 " fill-opacity="1" fill-rule="nonzero"/><path fill="#ffffff" d="M 603.433594 239.65625 L 592.058594 239.65625 C 589.164062 239.65625 586.8125 237.3125 586.8125 234.410156 C 586.8125 231.515625 589.164062 229.164062 592.058594 229.164062 L 603.433594 229.164062 C 606.328125 229.164062 608.679688 231.515625 608.679688 234.410156 C 608.679688 237.3125 606.328125 239.65625 603.433594 239.65625 " fill-opacity="1" fill-rule="nonzero"/><path fill="#ffffff" d="M 646.078125 239.65625 L 634.707031 239.65625 C 631.808594 239.65625 629.460938 237.3125 629.460938 234.410156 C 629.460938 231.515625 631.808594 229.164062 634.707031 229.164062 L 646.078125 229.164062 C 648.976562 229.164062 651.324219 231.515625 651.324219 234.410156 C 651.324219 237.3125 648.976562 239.65625 646.078125 239.65625 " fill-opacity="1" fill-rule="nonzero"/><path fill="#ffffff" d="M 512.011719 282.304688 L 512.011719 589.800781 C 512.011719 602.585938 522.414062 612.988281 535.199219 612.988281 L 904.800781 612.988281 C 917.585938 612.988281 927.988281 602.585938 927.988281 589.800781 L 927.988281 282.304688 Z M 904.800781 623.480469 L 535.199219 623.480469 C 516.628906 623.480469 501.519531 608.371094 501.519531 589.800781 L 501.519531 277.058594 C 501.519531 274.164062 503.867188 271.8125 506.765625 271.8125 L 933.234375 271.8125 C 936.132812 271.8125 938.480469 274.164062 938.480469 277.058594 L 938.480469 589.800781 C 938.480469 608.371094 923.371094 623.480469 904.800781 623.480469 " fill-opacity="1" fill-rule="nonzero"/><path fill="#ffffff" d="M 734.21875 483.046875 C 732.875 483.046875 731.527344 482.535156 730.503906 481.511719 L 700.351562 451.359375 C 698.300781 449.308594 698.300781 445.984375 700.351562 443.9375 L 730.503906 413.78125 C 732.554688 411.734375 735.878906 411.734375 737.925781 413.777344 C 739.972656 415.828125 739.972656 419.152344 737.925781 421.203125 L 711.480469 447.644531 L 737.925781 474.09375 C 739.972656 476.140625 739.972656 479.460938 737.925781 481.511719 C 736.902344 482.535156 735.558594 483.046875 734.21875 483.046875 " fill-opacity="1" fill-rule="nonzero"/><path fill="#ffffff" d="M 847.941406 483.046875 C 846.59375 483.046875 845.253906 482.535156 844.230469 481.511719 C 842.179688 479.460938 842.179688 476.140625 844.230469 474.09375 L 870.679688 447.644531 L 844.230469 421.203125 C 842.179688 419.152344 842.179688 415.828125 844.230469 413.777344 C 846.28125 411.734375 849.597656 411.734375 851.648438 413.777344 L 881.804688 443.9375 C 882.789062 444.917969 883.34375 446.253906 883.34375 447.644531 C 883.34375 449.039062 882.789062 450.371094 881.804688 451.359375 L 851.648438 481.511719 C 850.625 482.535156 849.285156 483.046875 847.941406 483.046875 " fill-opacity="1" fill-rule="nonzero"/><path fill="#ffffff" d="M 592.058594 390.648438 C 590.714844 390.648438 589.375 390.132812 588.351562 389.109375 L 558.195312 358.953125 C 557.210938 357.972656 556.65625 356.636719 556.65625 355.242188 C 556.65625 353.855469 557.210938 352.519531 558.195312 351.535156 L 588.351562 321.382812 C 590.402344 319.332031 593.71875 319.332031 595.769531 321.382812 C 597.820312 323.429688 597.820312 326.75 595.769531 328.800781 L 569.320312 355.242188 L 595.769531 381.691406 C 597.820312 383.742188 597.820312 387.0625 595.769531 389.109375 C 594.746094 390.132812 593.40625 390.648438 592.058594 390.648438 " fill-opacity="1" fill-rule="nonzero"/><path fill="#ffffff" d="M 705.78125 390.648438 C 704.441406 390.648438 703.097656 390.132812 702.074219 389.109375 C 700.027344 387.0625 700.027344 383.742188 702.074219 381.691406 L 728.519531 355.242188 L 702.074219 328.800781 C 700.027344 326.75 700.027344 323.429688 702.074219 321.382812 C 704.121094 319.332031 707.445312 319.332031 709.496094 321.382812 L 739.648438 351.535156 C 740.632812 352.519531 741.183594 353.855469 741.183594 355.242188 C 741.183594 356.636719 740.632812 357.972656 739.648438 358.953125 L 709.496094 389.109375 C 708.472656 390.132812 707.125 390.648438 705.78125 390.648438 " fill-opacity="1" fill-rule="nonzero"/><path fill="#ffffff" d="M 677.355469 575.449219 C 676.011719 575.449219 674.671875 574.9375 673.640625 573.914062 L 643.488281 543.753906 C 642.503906 542.773438 641.953125 541.441406 641.953125 540.046875 C 641.953125 538.65625 642.503906 537.320312 643.488281 536.335938 L 673.640625 506.183594 C 675.691406 504.136719 679.015625 504.136719 681.0625 506.183594 C 683.113281 508.230469 683.113281 511.554688 681.0625 513.601562 L 654.617188 540.046875 L 681.0625 566.496094 C 683.113281 568.542969 683.113281 571.863281 681.0625 573.914062 C 680.039062 574.9375 678.695312 575.449219 677.355469 575.449219 " fill-opacity="1" fill-rule="nonzero"/><path fill="#ffffff" d="M 791.078125 575.449219 C 789.738281 575.449219 788.390625 574.9375 787.367188 573.914062 C 785.316406 571.863281 785.316406 568.542969 787.367188 566.496094 L 813.816406 540.046875 L 787.367188 513.601562 C 785.316406 511.554688 785.316406 508.230469 787.367188 506.183594 C 789.417969 504.136719 792.738281 504.136719 794.785156 506.183594 L 824.941406 536.335938 C 826.992188 538.386719 826.992188 541.710938 824.941406 543.753906 L 794.785156 573.914062 C 793.765625 574.9375 792.421875 575.449219 791.078125 575.449219 " fill-opacity="1" fill-rule="nonzero"/><path fill="#ffffff" d="M 677.355469 391.765625 L 620.492188 391.765625 C 617.59375 391.765625 615.246094 389.417969 615.246094 386.519531 C 615.246094 383.621094 617.59375 381.273438 620.492188 381.273438 L 677.355469 381.273438 C 680.25 381.273438 682.601562 383.621094 682.601562 386.519531 C 682.601562 389.417969 680.25 391.765625 677.355469 391.765625 " fill-opacity="1" fill-rule="nonzero"/><path fill="#ffffff" d="M 618.765625 575.449219 L 561.902344 575.449219 C 559.003906 575.449219 556.65625 573.101562 556.65625 570.203125 C 556.65625 567.304688 559.003906 564.957031 561.902344 564.957031 L 618.765625 564.957031 C 621.664062 564.957031 624.011719 567.304688 624.011719 570.203125 C 624.011719 573.101562 621.664062 575.449219 618.765625 575.449219 " fill-opacity="1" fill-rule="nonzero"/><path fill="#ffffff" d="M 878.097656 575.449219 L 852.503906 575.449219 C 849.613281 575.449219 847.257812 573.101562 847.257812 570.203125 C 847.257812 567.304688 849.613281 564.957031 852.503906 564.957031 L 878.097656 564.957031 C 880.992188 564.957031 883.34375 567.304688 883.34375 570.203125 C 883.34375 573.101562 880.992188 575.449219 878.097656 575.449219 " fill-opacity="1" fill-rule="nonzero"/><path fill="#ffffff" d="M 878.097656 545.292969 L 852.503906 545.292969 C 849.613281 545.292969 847.257812 542.945312 847.257812 540.046875 C 847.257812 537.148438 849.613281 534.800781 852.503906 534.800781 L 878.097656 534.800781 C 880.992188 534.800781 883.34375 537.148438 883.34375 540.046875 C 883.34375 542.945312 880.992188 545.292969 878.097656 545.292969 " fill-opacity="1" fill-rule="nonzero"/><path fill="#ffffff" d="M 878.097656 515.140625 L 852.503906 515.140625 C 849.613281 515.140625 847.257812 512.792969 847.257812 509.894531 C 847.257812 506.996094 849.613281 504.648438 852.503906 504.648438 L 878.097656 504.648438 C 880.992188 504.648438 883.34375 506.996094 883.34375 509.894531 C 883.34375 512.792969 880.992188 515.140625 878.097656 515.140625 " fill-opacity="1" fill-rule="nonzero"/><path fill="#ffffff" d="M 587.496094 545.292969 L 561.902344 545.292969 C 559.003906 545.292969 556.65625 542.945312 556.65625 540.046875 C 556.65625 537.148438 559.003906 534.800781 561.902344 534.800781 L 587.496094 534.800781 C 590.386719 534.800781 592.742188 537.148438 592.742188 540.046875 C 592.742188 542.945312 590.386719 545.292969 587.496094 545.292969 " fill-opacity="1" fill-rule="nonzero"/><path fill="#ffffff" d="M 587.496094 515.140625 L 561.902344 515.140625 C 559.003906 515.140625 556.65625 512.792969 556.65625 509.894531 C 556.65625 506.996094 559.003906 504.648438 561.902344 504.648438 L 587.496094 504.648438 C 590.386719 504.648438 592.742188 506.996094 592.742188 509.894531 C 592.742188 512.792969 590.386719 515.140625 587.496094 515.140625 " fill-opacity="1" fill-rule="nonzero"/><path fill="#ffffff" d="M 705.78125 575.449219 L 700.097656 575.449219 C 697.199219 575.449219 694.851562 573.101562 694.851562 570.203125 C 694.851562 567.304688 697.199219 564.957031 700.097656 564.957031 L 705.78125 564.957031 C 708.683594 564.957031 711.027344 567.304688 711.027344 570.203125 C 711.027344 573.101562 708.683594 575.449219 705.78125 575.449219 " fill-opacity="1" fill-rule="nonzero"/><path fill="#ffffff" d="M 737.058594 575.449219 L 731.375 575.449219 C 728.476562 575.449219 726.128906 573.101562 726.128906 570.203125 C 726.128906 567.304688 728.476562 564.957031 731.375 564.957031 L 737.058594 564.957031 C 739.957031 564.957031 742.304688 567.304688 742.304688 570.203125 C 742.304688 573.101562 739.957031 575.449219 737.058594 575.449219 " fill-opacity="1" fill-rule="nonzero"/><path fill="#ffffff" d="M 768.332031 575.449219 L 762.644531 575.449219 C 759.75 575.449219 757.398438 573.101562 757.398438 570.203125 C 757.398438 567.304688 759.75 564.957031 762.644531 564.957031 L 768.332031 564.957031 C 771.230469 564.957031 773.578125 567.304688 773.578125 570.203125 C 773.578125 573.101562 771.230469 575.449219 768.332031 575.449219 " fill-opacity="1" fill-rule="nonzero"/><path fill="#ffffff" d="M 878.097656 391.765625 L 764.371094 391.765625 C 761.472656 391.765625 759.125 389.417969 759.125 386.519531 C 759.125 383.621094 761.472656 381.273438 764.371094 381.273438 L 878.097656 381.273438 C 880.992188 381.273438 883.34375 383.621094 883.34375 386.519531 C 883.34375 389.417969 880.992188 391.765625 878.097656 391.765625 " fill-opacity="1" fill-rule="nonzero"/><path fill="#ffffff" d="M 878.097656 330.335938 L 764.371094 330.335938 C 761.472656 330.335938 759.125 327.988281 759.125 325.089844 C 759.125 322.191406 761.472656 319.84375 764.371094 319.84375 L 878.097656 319.84375 C 880.992188 319.84375 883.34375 322.191406 883.34375 325.089844 C 883.34375 327.988281 880.992188 330.335938 878.097656 330.335938 " fill-opacity="1" fill-rule="nonzero"/><path fill="#ffffff" d="M 878.097656 360.488281 L 764.371094 360.488281 C 761.472656 360.488281 759.125 358.140625 759.125 355.242188 C 759.125 352.347656 761.472656 349.996094 764.371094 349.996094 L 878.097656 349.996094 C 880.992188 349.996094 883.34375 352.347656 883.34375 355.242188 C 883.34375 358.140625 880.992188 360.488281 878.097656 360.488281 " fill-opacity="1" fill-rule="nonzero"/><path fill="#ffffff" d="M 675.628906 472.792969 L 561.902344 472.792969 C 559.003906 472.792969 556.65625 470.445312 556.65625 467.546875 C 556.65625 464.648438 559.003906 462.300781 561.902344 462.300781 L 675.628906 462.300781 C 678.527344 462.300781 680.875 464.648438 680.875 467.546875 C 680.875 470.445312 678.527344 472.792969 675.628906 472.792969 " fill-opacity="1" fill-rule="nonzero"/><path fill="#ffffff" d="M 675.628906 432.992188 L 561.902344 432.992188 C 559.003906 432.992188 556.65625 430.640625 556.65625 427.746094 C 556.65625 424.84375 559.003906 422.5 561.902344 422.5 L 675.628906 422.5 C 678.527344 422.5 680.875 424.84375 680.875 427.746094 C 680.875 430.640625 678.527344 432.992188 675.628906 432.992188 " fill-opacity="1" fill-rule="nonzero"/><path fill="#ffffff" d="M 512.011719 271.8125 L 927.988281 271.8125 L 927.988281 220.199219 C 927.988281 207.414062 917.585938 197.011719 904.800781 197.011719 L 535.199219 197.011719 C 522.414062 197.011719 512.011719 207.414062 512.011719 220.199219 Z M 933.234375 282.304688 L 506.765625 282.304688 C 503.867188 282.304688 501.519531 279.957031 501.519531 277.058594 L 501.519531 220.199219 C 501.519531 201.628906 516.628906 186.519531 535.199219 186.519531 L 904.800781 186.519531 C 923.371094 186.519531 938.480469 201.628906 938.480469 220.199219 L 938.480469 277.058594 C 938.480469 279.957031 936.132812 282.304688 933.234375 282.304688 " fill-opacity="1" fill-rule="nonzero"/><path fill="#ffffff" d="M 560.785156 239.65625 L 549.410156 239.65625 C 546.515625 239.65625 544.164062 237.3125 544.164062 234.410156 C 544.164062 231.515625 546.515625 229.164062 549.410156 229.164062 L 560.785156 229.164062 C 563.683594 229.164062 566.03125 231.515625 566.03125 234.410156 C 566.03125 237.3125 563.683594 239.65625 560.785156 239.65625 " fill-opacity="1" fill-rule="nonzero"/><path fill="#ffffff" d="M 603.433594 239.65625 L 592.058594 239.65625 C 589.164062 239.65625 586.8125 237.3125 586.8125 234.410156 C 586.8125 231.515625 589.164062 229.164062 592.058594 229.164062 L 603.433594 229.164062 C 606.328125 229.164062 608.679688 231.515625 608.679688 234.410156 C 608.679688 237.3125 606.328125 239.65625 603.433594 239.65625 " fill-opacity="1" fill-rule="nonzero"/><path fill="#ffffff" d="M 646.078125 239.65625 L 634.707031 239.65625 C 631.808594 239.65625 629.460938 237.3125 629.460938 234.410156 C 629.460938 231.515625 631.808594 229.164062 634.707031 229.164062 L 646.078125 229.164062 C 648.976562 229.164062 651.324219 231.515625 651.324219 234.410156 C 651.324219 237.3125 648.976562 239.65625 646.078125 239.65625 " fill-opacity="1" fill-rule="nonzero"/><path fill="#ffffff" d="M 512.011719 282.304688 L 512.011719 589.800781 C 512.011719 602.585938 522.414062 612.988281 535.199219 612.988281 L 904.800781 612.988281 C 917.585938 612.988281 927.988281 602.585938 927.988281 589.800781 L 927.988281 282.304688 Z M 904.800781 623.480469 L 535.199219 623.480469 C 516.628906 623.480469 501.519531 608.371094 501.519531 589.800781 L 501.519531 277.058594 C 501.519531 274.164062 503.867188 271.8125 506.765625 271.8125 L 933.234375 271.8125 C 936.132812 271.8125 938.480469 274.164062 938.480469 277.058594 L 938.480469 589.800781 C 938.480469 608.371094 923.371094 623.480469 904.800781 623.480469 " fill-opacity="1" fill-rule="nonzero"/><path fill="#ffffff" d="M 734.21875 483.046875 C 732.875 483.046875 731.527344 482.535156 730.503906 481.511719 L 700.351562 451.359375 C 698.300781 449.308594 698.300781 445.984375 700.351562 443.9375 L 730.503906 413.78125 C 732.554688 411.734375 735.878906 411.734375 737.925781 413.777344 C 739.972656 415.828125 739.972656 419.152344 737.925781 421.203125 L 711.480469 447.644531 L 737.925781 474.09375 C 739.972656 476.140625 739.972656 479.460938 737.925781 481.511719 C 736.902344 482.535156 735.558594 483.046875 734.21875 483.046875 " fill-opacity="1" fill-rule="nonzero"/><path fill="#ffffff" d="M 847.941406 483.046875 C 846.59375 483.046875 845.253906 482.535156 844.230469 481.511719 C 842.179688 479.460938 842.179688 476.140625 844.230469 474.09375 L 870.679688 447.644531 L 844.230469 421.203125 C 842.179688 419.152344 842.179688 415.828125 844.230469 413.777344 C 846.28125 411.734375 849.597656 411.734375 851.648438 413.777344 L 881.804688 443.9375 C 882.789062 444.917969 883.34375 446.253906 883.34375 447.644531 C 883.34375 449.039062 882.789062 450.371094 881.804688 451.359375 L 851.648438 481.511719 C 850.625 482.535156 849.285156 483.046875 847.941406 483.046875 " fill-opacity="1" fill-rule="nonzero"/><path fill="#ffffff" d="M 592.058594 390.648438 C 590.714844 390.648438 589.375 390.132812 588.351562 389.109375 L 558.195312 358.953125 C 557.210938 357.972656 556.65625 356.636719 556.65625 355.242188 C 556.65625 353.855469 557.210938 352.519531 558.195312 351.535156 L 588.351562 321.382812 C 590.402344 319.332031 593.71875 319.332031 595.769531 321.382812 C 597.820312 323.429688 597.820312 326.75 595.769531 328.800781 L 569.320312 355.242188 L 595.769531 381.691406 C 597.820312 383.742188 597.820312 387.0625 595.769531 389.109375 C 594.746094 390.132812 593.40625 390.648438 592.058594 390.648438 " fill-opacity="1" fill-rule="nonzero"/><path fill="#ffffff" d="M 705.78125 390.648438 C 704.441406 390.648438 703.097656 390.132812 702.074219 389.109375 C 700.027344 387.0625 700.027344 383.742188 702.074219 381.691406 L 728.519531 355.242188 L 702.074219 328.800781 C 700.027344 326.75 700.027344 323.429688 702.074219 321.382812 C 704.121094 319.332031 707.445312 319.332031 709.496094 321.382812 L 739.648438 351.535156 C 740.632812 352.519531 741.183594 353.855469 741.183594 355.242188 C 741.183594 356.636719 740.632812 357.972656 739.648438 358.953125 L 709.496094 389.109375 C 708.472656 390.132812 707.125 390.648438 705.78125 390.648438 " fill-opacity="1" fill-rule="nonzero"/><path fill="#ffffff" d="M 677.355469 575.449219 C 676.011719 575.449219 674.671875 574.9375 673.640625 573.914062 L 643.488281 543.753906 C 642.503906 542.773438 641.953125 541.441406 641.953125 540.046875 C 641.953125 538.65625 642.503906 537.320312 643.488281 536.335938 L 673.640625 506.183594 C 675.691406 504.136719 679.015625 504.136719 681.0625 506.183594 C 683.113281 508.230469 683.113281 511.554688 681.0625 513.601562 L 654.617188 540.046875 L 681.0625 566.496094 C 683.113281 568.542969 683.113281 571.863281 681.0625 573.914062 C 680.039062 574.9375 678.695312 575.449219 677.355469 575.449219 " fill-opacity="1" fill-rule="nonzero"/><path fill="#ffffff" d="M 791.078125 575.449219 C 789.738281 575.449219 788.390625 574.9375 787.367188 573.914062 C 785.316406 571.863281 785.316406 568.542969 787.367188 566.496094 L 813.816406 540.046875 L 787.367188 513.601562 C 785.316406 511.554688 785.316406 508.230469 787.367188 506.183594 C 789.417969 504.136719 792.738281 504.136719 794.785156 506.183594 L 824.941406 536.335938 C 826.992188 538.386719 826.992188 541.710938 824.941406 543.753906 L 794.785156 573.914062 C 793.765625 574.9375 792.421875 575.449219 791.078125 575.449219 " fill-opacity="1" fill-rule="nonzero"/><path fill="#ffffff" d="M 677.355469 391.765625 L 620.492188 391.765625 C 617.59375 391.765625 615.246094 389.417969 615.246094 386.519531 C 615.246094 383.621094 617.59375 381.273438 620.492188 381.273438 L 677.355469 381.273438 C 680.25 381.273438 682.601562 383.621094 682.601562 386.519531 C 682.601562 389.417969 680.25 391.765625 677.355469 391.765625 " fill-opacity="1" fill-rule="nonzero"/><path fill="#ffffff" d="M 618.765625 575.449219 L 561.902344 575.449219 C 559.003906 575.449219 556.65625 573.101562 556.65625 570.203125 C 556.65625 567.304688 559.003906 564.957031 561.902344 564.957031 L 618.765625 564.957031 C 621.664062 564.957031 624.011719 567.304688 624.011719 570.203125 C 624.011719 573.101562 621.664062 575.449219 618.765625 575.449219 " fill-opacity="1" fill-rule="nonzero"/><path fill="#ffffff" d="M 878.097656 575.449219 L 852.503906 575.449219 C 849.613281 575.449219 847.257812 573.101562 847.257812 570.203125 C 847.257812 567.304688 849.613281 564.957031 852.503906 564.957031 L 878.097656 564.957031 C 880.992188 564.957031 883.34375 567.304688 883.34375 570.203125 C 883.34375 573.101562 880.992188 575.449219 878.097656 575.449219 " fill-opacity="1" fill-rule="nonzero"/><path fill="#ffffff" d="M 878.097656 545.292969 L 852.503906 545.292969 C 849.613281 545.292969 847.257812 542.945312 847.257812 540.046875 C 847.257812 537.148438 849.613281 534.800781 852.503906 534.800781 L 878.097656 534.800781 C 880.992188 534.800781 883.34375 537.148438 883.34375 540.046875 C 883.34375 542.945312 880.992188 545.292969 878.097656 545.292969 " fill-opacity="1" fill-rule="nonzero"/><path fill="#ffffff" d="M 878.097656 515.140625 L 852.503906 515.140625 C 849.613281 515.140625 847.257812 512.792969 847.257812 509.894531 C 847.257812 506.996094 849.613281 504.648438 852.503906 504.648438 L 878.097656 504.648438 C 880.992188 504.648438 883.34375 506.996094 883.34375 509.894531 C 883.34375 512.792969 880.992188 515.140625 878.097656 515.140625 " fill-opacity="1" fill-rule="nonzero"/><path fill="#ffffff" d="M 587.496094 545.292969 L 561.902344 545.292969 C 559.003906 545.292969 556.65625 542.945312 556.65625 540.046875 C 556.65625 537.148438 559.003906 534.800781 561.902344 534.800781 L 587.496094 534.800781 C 590.386719 534.800781 592.742188 537.148438 592.742188 540.046875 C 592.742188 542.945312 590.386719 545.292969 587.496094 545.292969 " fill-opacity="1" fill-rule="nonzero"/><path fill="#ffffff" d="M 587.496094 515.140625 L 561.902344 515.140625 C 559.003906 515.140625 556.65625 512.792969 556.65625 509.894531 C 556.65625 506.996094 559.003906 504.648438 561.902344 504.648438 L 587.496094 504.648438 C 590.386719 504.648438 592.742188 506.996094 592.742188 509.894531 C 592.742188 512.792969 590.386719 515.140625 587.496094 515.140625 " fill-opacity="1" fill-rule="nonzero"/><path fill="#ffffff" d="M 705.78125 575.449219 L 700.097656 575.449219 C 697.199219 575.449219 694.851562 573.101562 694.851562 570.203125 C 694.851562 567.304688 697.199219 564.957031 700.097656 564.957031 L 705.78125 564.957031 C 708.683594 564.957031 711.027344 567.304688 711.027344 570.203125 C 711.027344 573.101562 708.683594 575.449219 705.78125 575.449219 " fill-opacity="1" fill-rule="nonzero"/><path fill="#ffffff" d="M 737.058594 575.449219 L 731.375 575.449219 C 728.476562 575.449219 726.128906 573.101562 726.128906 570.203125 C 726.128906 567.304688 728.476562 564.957031 731.375 564.957031 L 737.058594 564.957031 C 739.957031 564.957031 742.304688 567.304688 742.304688 570.203125 C 742.304688 573.101562 739.957031 575.449219 737.058594 575.449219 " fill-opacity="1" fill-rule="nonzero"/><path fill="#ffffff" d="M 768.332031 575.449219 L 762.644531 575.449219 C 759.75 575.449219 757.398438 573.101562 757.398438 570.203125 C 757.398438 567.304688 759.75 564.957031 762.644531 564.957031 L 768.332031 564.957031 C 771.230469 564.957031 773.578125 567.304688 773.578125 570.203125 C 773.578125 573.101562 771.230469 575.449219 768.332031 575.449219 " fill-opacity="1" fill-rule="nonzero"/><path fill="#ffffff" d="M 878.097656 391.765625 L 764.371094 391.765625 C 761.472656 391.765625 759.125 389.417969 759.125 386.519531 C 759.125 383.621094 761.472656 381.273438 764.371094 381.273438 L 878.097656 381.273438 C 880.992188 381.273438 883.34375 383.621094 883.34375 386.519531 C 883.34375 389.417969 880.992188 391.765625 878.097656 391.765625 " fill-opacity="1" fill-rule="nonzero"/><path fill="#ffffff" d="M 878.097656 330.335938 L 764.371094 330.335938 C 761.472656 330.335938 759.125 327.988281 759.125 325.089844 C 759.125 322.191406 761.472656 319.84375 764.371094 319.84375 L 878.097656 319.84375 C 880.992188 319.84375 883.34375 322.191406 883.34375 325.089844 C 883.34375 327.988281 880.992188 330.335938 878.097656 330.335938 " fill-opacity="1" fill-rule="nonzero"/><path fill="#ffffff" d="M 878.097656 360.488281 L 764.371094 360.488281 C 761.472656 360.488281 759.125 358.140625 759.125 355.242188 C 759.125 352.347656 761.472656 349.996094 764.371094 349.996094 L 878.097656 349.996094 C 880.992188 349.996094 883.34375 352.347656 883.34375 355.242188 C 883.34375 358.140625 880.992188 360.488281 878.097656 360.488281 " fill-opacity="1" fill-rule="nonzero"/><path fill="#ffffff" d="M 675.628906 472.792969 L 561.902344 472.792969 C 559.003906 472.792969 556.65625 470.445312 556.65625 467.546875 C 556.65625 464.648438 559.003906 462.300781 561.902344 462.300781 L 675.628906 462.300781 C 678.527344 462.300781 680.875 464.648438 680.875 467.546875 C 680.875 470.445312 678.527344 472.792969 675.628906 472.792969 " fill-opacity="1" fill-rule="nonzero"/><path fill="#ffffff" d="M 675.628906 432.992188 L 561.902344 432.992188 C 559.003906 432.992188 556.65625 430.640625 556.65625 427.746094 C 556.65625 424.84375 559.003906 422.5 561.902344 422.5 L 675.628906 422.5 C 678.527344 422.5 680.875 424.84375 680.875 427.746094 C 680.875 430.640625 678.527344 432.992188 675.628906 432.992188 " fill-opacity="1" fill-rule="nonzero"/></svg>